<svg width="358" height="50" viewBox="0 0 358 50" fill="none" xmlns="http://www.w3.org/2000/svg">
<rect width="358" height="50" rx="2" fill="black"/>
<path d="M144.475 22.6215C143.989 19.9368 141.841 18.3516 139.208 18.3516C135.858 18.3516 133.429 20.934 133.429 25.076C133.429 29.2181 135.858 31.8004 139.208 31.8004C141.841 31.8004 143.989 30.2152 144.475 27.5306H142.89C142.506 29.3459 140.946 30.3175 139.208 30.3175C136.83 30.3175 134.963 28.4766 134.963 25.076C134.963 21.6754 136.83 19.8345 139.208 19.8345C140.946 19.8345 142.506 20.8061 142.89 22.6215H144.475ZM150.82 31.826C153.48 31.826 155.269 29.8061 155.269 26.7635C155.269 23.6953 153.48 21.6754 150.82 21.6754C148.161 21.6754 146.372 23.6953 146.372 26.7635C146.372 29.8061 148.161 31.826 150.82 31.826ZM150.82 30.4709C148.801 30.4709 147.88 28.7323 147.88 26.7635C147.88 24.7948 148.801 23.0306 150.82 23.0306C152.84 23.0306 153.761 24.7948 153.761 26.7635C153.761 28.7323 152.84 30.4709 150.82 30.4709ZM158.293 21.8033H156.554L159.673 26.7124L156.554 31.6215H158.293L160.645 27.8118L162.997 31.6215H164.736L161.566 26.7124L164.736 21.8033H162.997L160.645 25.8175L158.293 21.8033ZM166.888 35.3033H168.397V30.1129H168.525C168.857 30.6499 169.496 31.826 171.388 31.826C173.843 31.826 175.556 29.8573 175.556 26.7379C175.556 23.6442 173.843 21.6754 171.363 21.6754C169.445 21.6754 168.857 22.8516 168.525 23.3629H168.346V21.8033H166.888V35.3033ZM168.371 26.7124C168.371 24.5135 169.343 23.0306 171.184 23.0306C173.102 23.0306 174.048 24.6413 174.048 26.7124C174.048 28.809 173.076 30.4709 171.184 30.4709C169.369 30.4709 168.371 28.9368 168.371 26.7124ZM180.746 31.8516C182.46 31.8516 183.354 30.9311 183.661 30.2919H183.738V31.6215H185.246V25.1527C185.246 22.0334 182.869 21.6754 181.616 21.6754C180.133 21.6754 178.445 22.1868 177.678 23.9766L179.11 24.4879C179.442 23.772 180.229 23.005 181.667 23.005C183.054 23.005 183.738 23.7401 183.738 24.9993V25.0504C183.738 25.7791 182.996 25.7152 181.207 25.9453C179.385 26.1818 177.397 26.5845 177.397 28.8345C177.397 30.7521 178.88 31.8516 180.746 31.8516ZM180.977 30.4965C179.775 30.4965 178.906 29.9595 178.906 28.9112C178.906 27.7607 179.954 27.4027 181.13 27.2493C181.769 27.1726 183.482 26.9936 183.738 26.6868V28.0675C183.738 29.2948 182.766 30.4965 180.977 30.4965ZM189.508 21.8033H188V31.6215H189.508V27.4283H194.213V31.6215H195.721V21.8033H194.213V26.022H189.508V21.8033ZM199.985 29.397V21.8033H198.476V31.6215H200.241L204.945 24.0277V31.6215H206.454V21.8033H204.715L199.985 29.397ZM207.881 23.2095H211.128V31.6215H212.636V23.2095H215.858V21.8033H207.881V23.2095ZM219.567 25.3573V21.8033H218.058V31.6215H222.175C224.476 31.6215 225.729 30.2152 225.729 28.451C225.729 26.6612 224.476 25.3573 222.175 25.3573H219.567ZM219.567 26.7635H222.175C223.37 26.7635 224.22 27.4922 224.22 28.5277C224.22 29.5185 223.37 30.2152 222.175 30.2152H219.567V26.7635Z" fill="white"/>
</svg>
